<svg width="20" height="19" viewBox="0 0 20 19" fill="none" xmlns="http://www.w3.org/2000/svg">
<path fill-rule="evenodd" clip-rule="evenodd" d="M6.79981 14.6939C6.79981 14.7684 6.7142 14.8279 6.60626 14.8279C6.48343 14.8391 6.39783 14.7795 6.39783 14.6939C6.39783 14.6195 6.48343 14.5599 6.59137 14.5599C6.70303 14.5488 6.79981 14.6083 6.79981 14.6939ZM5.6423 14.5263C5.61624 14.6007 5.69068 14.6863 5.80235 14.7086C5.89912 14.7459 6.01078 14.7086 6.03311 14.6342C6.05544 14.5598 5.98472 14.4742 5.87306 14.4407C5.77629 14.4146 5.66835 14.4518 5.6423 14.5263V14.5263ZM7.28743 14.4628C7.17949 14.4888 7.10505 14.5596 7.11622 14.6452C7.12739 14.7196 7.22416 14.768 7.33582 14.7419C7.44376 14.7159 7.5182 14.6452 7.50703 14.5707C7.49587 14.5 7.39537 14.4516 7.28743 14.4628ZM9.73652 0.200195C4.57407 0.200195 0.625 4.11949 0.625 9.28194C0.625 13.4097 3.22298 16.9419 6.93384 18.185C7.41026 18.2706 7.57775 17.9766 7.57775 17.7347C7.57775 17.5039 7.56658 16.231 7.56658 15.4493C7.56658 15.4493 4.96116 16.0076 4.41402 14.3402C4.41402 14.3402 3.98971 13.2571 3.3793 12.9779C3.3793 12.9779 2.52696 12.3936 3.43885 12.4047C3.43885 12.4047 4.36564 12.4792 4.87555 13.365C5.69068 14.8017 7.05666 14.3886 7.58891 14.1429C7.67452 13.5474 7.91645 13.1342 8.18444 12.8886C6.10382 12.6578 4.0046 12.3563 4.0046 8.77574C4.0046 7.75219 4.28747 7.23855 4.883 6.58347C4.78623 6.34154 4.46985 5.34404 4.97977 4.05622C5.75767 3.81428 7.54797 5.06116 7.54797 5.06116C8.29238 4.85273 9.09261 4.74479 9.8854 4.74479C10.6782 4.74479 11.4784 4.85273 12.2228 5.06116C12.2228 5.06116 14.0131 3.81056 14.791 4.05622C15.301 5.34776 14.9846 6.34154 14.8878 6.58347C15.4833 7.24227 15.8481 7.75591 15.8481 8.77574C15.8481 12.3675 13.6558 12.6541 11.5752 12.8886C11.9176 13.1826 12.2079 13.7409 12.2079 14.6156C12.2079 15.8699 12.1968 17.422 12.1968 17.7272C12.1968 17.9692 12.368 18.2632 12.8407 18.1776C16.5627 16.9419 19.0863 13.4097 19.0863 9.28194C19.0863 4.11949 14.899 0.200195 9.73652 0.200195ZM4.24277 13.0374C4.19439 13.0747 4.20555 13.1603 4.26883 13.231C4.32838 13.2905 4.41399 13.3166 4.46237 13.2682C4.51076 13.231 4.49959 13.1454 4.43632 13.0747C4.37677 13.0151 4.29116 12.989 4.24277 13.0374ZM3.84081 12.736C3.81475 12.7844 3.85197 12.8439 3.92642 12.8812C3.98597 12.9184 4.06041 12.9072 4.08646 12.8551C4.11252 12.8067 4.0753 12.7472 4.00086 12.7099C3.92642 12.6876 3.86686 12.6988 3.84081 12.736ZM5.04674 14.061C4.98719 14.1094 5.00952 14.2211 5.09513 14.2918C5.18074 14.3774 5.28868 14.3886 5.33706 14.329C5.38545 14.2806 5.36312 14.169 5.28868 14.0982C5.20679 14.0126 5.09513 14.0015 5.04674 14.061ZM4.62242 13.5139C4.56287 13.5511 4.56287 13.6479 4.62242 13.7335C4.68198 13.8191 4.78247 13.8563 4.83086 13.8191C4.89041 13.7707 4.89041 13.6739 4.83086 13.5883C4.77875 13.5027 4.68198 13.4655 4.62242 13.5139V13.5139Z" fill="black"/>
</svg>
