<svg width="19" height="19" viewBox="0 0 19 19" fill="none" xmlns="http://www.w3.org/2000/svg">
<mask id="mask0_12_1585" style="mask-type:luminance" maskUnits="userSpaceOnUse" x="0" y="0" width="19" height="19">
<rect x="0.625" y="0.700195" width="18" height="18" fill="white"/>
</mask>
<g mask="url(#mask0_12_1585)">
<path fill-rule="evenodd" clip-rule="evenodd" d="M16.9791 8.23132H16.375V8.2002H9.625V11.2002H13.8636C13.2453 12.9466 11.5836 14.2002 9.625 14.2002C7.13988 14.2002 5.125 12.1853 5.125 9.7002C5.125 7.21507 7.13988 5.2002 9.625 5.2002C10.7721 5.2002 11.8158 5.63295 12.6104 6.33982L14.7317 4.21845C13.3923 2.97007 11.6005 2.2002 9.625 2.2002C5.48313 2.2002 2.125 5.55832 2.125 9.7002C2.125 13.8421 5.48313 17.2002 9.625 17.2002C13.7669 17.2002 17.125 13.8421 17.125 9.7002C17.125 9.19732 17.0732 8.70645 16.9791 8.23132Z" fill="#FFC107"/>
<path fill-rule="evenodd" clip-rule="evenodd" d="M2.99023 6.20932L5.45436 8.01645C6.12111 6.36569 7.73586 5.2002 9.62549 5.2002C10.7726 5.2002 11.8162 5.63295 12.6109 6.33982L14.7322 4.21845C13.3927 2.97007 11.601 2.2002 9.62549 2.2002C6.74474 2.2002 4.24648 3.82657 2.99023 6.20932Z" fill="#FF3D00"/>
<path fill-rule="evenodd" clip-rule="evenodd" d="M9.62512 17.2005C11.5624 17.2005 13.3226 16.4591 14.6535 15.2535L12.3322 13.2892C11.5792 13.8596 10.6432 14.2005 9.62512 14.2005C7.67437 14.2005 6.01799 12.9566 5.39399 11.2207L2.94824 13.1051C4.18949 15.534 6.71024 17.2005 9.62512 17.2005Z" fill="#4CAF50"/>
<path fill-rule="evenodd" clip-rule="evenodd" d="M16.9791 8.23132H16.375V8.2002H9.625V11.2002H13.8636C13.5666 12.0391 13.027 12.7624 12.331 13.2893C12.3314 13.2889 12.3318 13.2889 12.3321 13.2886L14.6534 15.2528C14.4891 15.4021 17.125 13.4502 17.125 9.7002C17.125 9.19732 17.0732 8.70645 16.9791 8.23132Z" fill="#1976D2"/>
</g>
</svg>
