<svg width="96" height="96" viewBox="0 0 103 103" fill="none" xmlns="http://www.w3.org/2000/svg">
    <rect width="103" height="103" fill="#transparent"/>
    <g id="Desktop - Invoices">
        <rect width="1440" height="800" fill="transparent"/>
        <g id="Group 10" clip-path="url(#clip0_0_1)">
            <path id="Rectangle" d="M0 0H83C94.0457 0 103 8.95431 103 20V780C103 791.046 94.0457 800 83 800H0V0Z" fill="transparent"/>
            <g id="Group 9">
                <g id="Rectangle Copy 3">
                    <path id="Mask" d="M0 0H83C94.0457 0 103 8.9543 103 20V83C103 94.0457 94.0457 103 83 103H0V0Z" fill="#7C5DFA"/>
                    <mask id="mask0_0_1" style="mask-type:luminance" maskUnits="userSpaceOnUse" x="0" y="0" width="103" height="103">
                        <path id="Mask_2" d="M0 0H83C94.0457 0 103 8.9543 103 20V83C103 94.0457 94.0457 103 83 103H0V0Z" fill="white"/>
                    </mask>
                    <g mask="url(#mask0_0_1)">
                        <path id="Rectangle Copy 3_2" d="M103 52H20C8.95431 52 0 60.9543 0 72V135C0 146.046 8.95431 155 20 155H103V52Z" fill="#9277FF"/>
                    </g>
                </g>
                <path id="Combined Shape" fill-rule="evenodd" clip-rule="evenodd" d="M42.6942 33.2922L52 51.9999L61.3058 33.2922C67.6645 36.6407 72 43.314 72 50.9999C72 62.0456 63.0457 70.9999 52 70.9999C40.9543 70.9999 32 62.0456 32 50.9999C32 43.314 36.3355 36.6407 42.6942 33.2922Z" fill="white"/>
            </g>
        </g>
    </g>
    <defs>
        <clipPath id="clip0_0_1">
            <rect width="103" height="800" fill=""/>
        </clipPath>
    </defs>
</svg>
